<mxfile host="65bd71144e">
    <diagram id="_o7a_Rgqdpmq-Mc68ZD_" name="Page-1">
        <mxGraphModel dx="2580" dy="1408" grid="1" gridSize="10" guides="1" tooltips="1" connect="1" arrows="1" fold="1" page="1" pageScale="1" pageWidth="850" pageHeight="1100" math="0" shadow="0">
            <root>
                <mxCell id="0"/>
                <mxCell id="1" parent="0"/>
                <mxCell id="30" value="" style="rounded=0;whiteSpace=wrap;html=1;" vertex="1" parent="1">
                    <mxGeometry x="510" y="50" width="860" height="2070" as="geometry"/>
                </mxCell>
                <mxCell id="LYh1yNM5z3HZ3jnRtjPd-69" style="edgeStyle=none;html=1;exitX=1;exitY=0.3333333333333333;exitDx=0;exitDy=0;exitPerimeter=0;endArrow=none;endFill=0;entryX=0;entryY=0.5;entryDx=0;entryDy=0;" parent="1" source="4" target="LYh1yNM5z3HZ3jnRtjPd-21" edge="1">
                    <mxGeometry relative="1" as="geometry">
                        <mxPoint x="550" y="1570" as="targetPoint"/>
                    </mxGeometry>
                </mxCell>
                <mxCell id="LYh1yNM5z3HZ3jnRtjPd-70" style="edgeStyle=none;html=1;exitX=1;exitY=0.3333333333333333;exitDx=0;exitDy=0;exitPerimeter=0;entryX=0;entryY=0.5;entryDx=0;entryDy=0;endArrow=none;endFill=0;" parent="1" source="4" target="LYh1yNM5z3HZ3jnRtjPd-23" edge="1">
                    <mxGeometry relative="1" as="geometry">
                        <mxPoint x="544.6800000000001" y="1653.1" as="targetPoint"/>
                    </mxGeometry>
                </mxCell>
                <mxCell id="LYh1yNM5z3HZ3jnRtjPd-71" style="edgeStyle=none;html=1;exitX=1;exitY=0.3333333333333333;exitDx=0;exitDy=0;exitPerimeter=0;entryX=0.5;entryY=0;entryDx=0;entryDy=0;endArrow=none;endFill=0;" parent="1" source="4" target="LYh1yNM5z3HZ3jnRtjPd-15" edge="1">
                    <mxGeometry relative="1" as="geometry">
                        <mxPoint x="540.000000000003" y="1715" as="targetPoint"/>
                    </mxGeometry>
                </mxCell>
                <mxCell id="LYh1yNM5z3HZ3jnRtjPd-115" style="edgeStyle=none;html=1;exitX=1;exitY=0.3333333333333333;exitDx=0;exitDy=0;exitPerimeter=0;entryX=0.5;entryY=1;entryDx=0;entryDy=0;endArrow=none;endFill=0;" parent="1" source="4" target="LYh1yNM5z3HZ3jnRtjPd-113" edge="1">
                    <mxGeometry relative="1" as="geometry">
                        <Array as="points">
                            <mxPoint x="1180" y="1500"/>
                        </Array>
                    </mxGeometry>
                </mxCell>
                <mxCell id="4" value="&lt;span style=&quot;box-sizing: border-box; border: 0px solid; --tw-border-spacing-x: 0; --tw-border-spacing-y: 0; --tw-translate-x: 0; --tw-translate-y: 0; --tw-rotate: 0; --tw-skew-x: 0; --tw-skew-y: 0; --tw-scale-x: 1; --tw-scale-y: 1; --tw-pan-x: ; --tw-pan-y: ; --tw-pinch-zoom: ; --tw-scroll-snap-strictness: proximity; --tw-gradient-from-position: ; --tw-gradient-via-position: ; --tw-gradient-to-position: ; --tw-ordinal: ; --tw-slashed-zero: ; --tw-numeric-figure: ; --tw-numeric-spacing: ; --tw-numeric-fraction: ; --tw-ring-inset: ; --tw-ring-offset-width: 0px; --tw-ring-offset-color: #fff; --tw-ring-color: rgba(59,130,246,.5); --tw-ring-offset-shadow: 0 0 #0000; --tw-ring-shadow: 0 0 #0000; --tw-shadow: 0 0 #0000; --tw-shadow-colored: 0 0 #0000; --tw-blur: ; --tw-brightness: ; --tw-contrast: ; --tw-grayscale: ; --tw-hue-rotate: ; --tw-invert: ; --tw-saturate: ; --tw-sepia: ; --tw-drop-shadow: ; --tw-backdrop-blur: ; --tw-backdrop-brightness: ; --tw-backdrop-contrast: ; --tw-backdrop-grayscale: ; --tw-backdrop-hue-rotate: ; --tw-backdrop-invert: ; --tw-backdrop-opacity: ; --tw-backdrop-saturate: ; --tw-backdrop-sepia: ; --tw-contain-size: ; --tw-contain-layout: ; --tw-contain-paint: ; --tw-contain-style: ; font-weight: bolder; color: rgb(0, 0, 0); font-family: &amp;quot;Nunito Sans&amp;quot;, sans-serif; font-size: 14px; text-align: start; background-color: rgb(255, 255, 255);&quot;&gt;Ã‰tudiant&lt;/span&gt;" style="shape=umlActor;verticalLabelPosition=bottom;verticalAlign=top;html=1;outlineConnect=0;" parent="1" vertex="1">
                    <mxGeometry x="410" y="1588" width="50" height="90" as="geometry"/>
                </mxCell>
                <mxCell id="LYh1yNM5z3HZ3jnRtjPd-73" style="edgeStyle=none;html=1;exitX=1;exitY=0.3333333333333333;exitDx=0;exitDy=0;exitPerimeter=0;entryX=0;entryY=0.5;entryDx=0;entryDy=0;endArrow=none;endFill=0;" parent="1" source="5" target="LYh1yNM5z3HZ3jnRtjPd-30" edge="1">
                    <mxGeometry relative="1" as="geometry"/>
                </mxCell>
                <mxCell id="LYh1yNM5z3HZ3jnRtjPd-74" style="edgeStyle=none;html=1;exitX=1;exitY=0.3333333333333333;exitDx=0;exitDy=0;exitPerimeter=0;entryX=0;entryY=0.5;entryDx=0;entryDy=0;endArrow=none;endFill=0;" parent="1" source="5" target="LYh1yNM5z3HZ3jnRtjPd-31" edge="1">
                    <mxGeometry relative="1" as="geometry"/>
                </mxCell>
                <mxCell id="LYh1yNM5z3HZ3jnRtjPd-117" style="edgeStyle=none;html=1;exitX=1;exitY=0.3333333333333333;exitDx=0;exitDy=0;exitPerimeter=0;endArrow=none;endFill=0;entryX=0.332;entryY=0.035;entryDx=0;entryDy=0;entryPerimeter=0;" parent="1" source="5" target="LYh1yNM5z3HZ3jnRtjPd-113" edge="1">
                    <mxGeometry relative="1" as="geometry">
                        <Array as="points">
                            <mxPoint x="1190" y="500"/>
                        </Array>
                    </mxGeometry>
                </mxCell>
                <mxCell id="5" value="&lt;span style=&quot;box-sizing: border-box; border: 0px solid; --tw-border-spacing-x: 0; --tw-border-spacing-y: 0; --tw-translate-x: 0; --tw-translate-y: 0; --tw-rotate: 0; --tw-skew-x: 0; --tw-skew-y: 0; --tw-scale-x: 1; --tw-scale-y: 1; --tw-pan-x: ; --tw-pan-y: ; --tw-pinch-zoom: ; --tw-scroll-snap-strictness: proximity; --tw-gradient-from-position: ; --tw-gradient-via-position: ; --tw-gradient-to-position: ; --tw-ordinal: ; --tw-slashed-zero: ; --tw-numeric-figure: ; --tw-numeric-spacing: ; --tw-numeric-fraction: ; --tw-ring-inset: ; --tw-ring-offset-width: 0px; --tw-ring-offset-color: #fff; --tw-ring-color: rgba(59,130,246,.5); --tw-ring-offset-shadow: 0 0 #0000; --tw-ring-shadow: 0 0 #0000; --tw-shadow: 0 0 #0000; --tw-shadow-colored: 0 0 #0000; --tw-blur: ; --tw-brightness: ; --tw-contrast: ; --tw-grayscale: ; --tw-hue-rotate: ; --tw-invert: ; --tw-saturate: ; --tw-sepia: ; --tw-drop-shadow: ; --tw-backdrop-blur: ; --tw-backdrop-brightness: ; --tw-backdrop-contrast: ; --tw-backdrop-grayscale: ; --tw-backdrop-hue-rotate: ; --tw-backdrop-invert: ; --tw-backdrop-opacity: ; --tw-backdrop-saturate: ; --tw-backdrop-sepia: ; --tw-contain-size: ; --tw-contain-layout: ; --tw-contain-paint: ; --tw-contain-style: ; font-weight: bolder; color: rgb(0, 0, 0); font-family: &amp;quot;Nunito Sans&amp;quot;, sans-serif; font-size: 14px; text-align: start; background-color: rgb(255, 255, 255);&quot;&gt;Enseignant&lt;/span&gt;" style="shape=umlActor;verticalLabelPosition=bottom;verticalAlign=top;html=1;outlineConnect=0;" parent="1" vertex="1">
                    <mxGeometry x="400" y="150" width="50" height="90" as="geometry"/>
                </mxCell>
                <mxCell id="LYh1yNM5z3HZ3jnRtjPd-61" style="edgeStyle=none;html=1;exitX=1;exitY=0.3333333333333333;exitDx=0;exitDy=0;exitPerimeter=0;entryX=0;entryY=0.5;entryDx=0;entryDy=0;endArrow=none;endFill=0;" parent="1" source="6" target="22" edge="1">
                    <mxGeometry relative="1" as="geometry">
                        <mxPoint x="575" y="545" as="targetPoint"/>
                    </mxGeometry>
                </mxCell>
                <mxCell id="LYh1yNM5z3HZ3jnRtjPd-62" style="edgeStyle=none;html=1;exitX=1;exitY=0.3333333333333333;exitDx=0;exitDy=0;exitPerimeter=0;entryX=0;entryY=0.5;entryDx=0;entryDy=0;endArrow=none;endFill=0;" parent="1" source="6" target="LYh1yNM5z3HZ3jnRtjPd-42" edge="1">
                    <mxGeometry relative="1" as="geometry"/>
                </mxCell>
                <mxCell id="LYh1yNM5z3HZ3jnRtjPd-63" style="edgeStyle=none;html=1;exitX=1;exitY=0.3333333333333333;exitDx=0;exitDy=0;exitPerimeter=0;entryX=0;entryY=0.5;entryDx=0;entryDy=0;endArrow=none;endFill=0;" parent="1" source="6" target="LYh1yNM5z3HZ3jnRtjPd-36" edge="1">
                    <mxGeometry relative="1" as="geometry"/>
                </mxCell>
                <mxCell id="LYh1yNM5z3HZ3jnRtjPd-64" style="edgeStyle=none;html=1;exitX=1;exitY=0.3333333333333333;exitDx=0;exitDy=0;exitPerimeter=0;entryX=0;entryY=0.5;entryDx=0;entryDy=0;endArrow=none;endFill=0;" parent="1" source="6" target="LYh1yNM5z3HZ3jnRtjPd-55" edge="1">
                    <mxGeometry relative="1" as="geometry"/>
                </mxCell>
                <mxCell id="LYh1yNM5z3HZ3jnRtjPd-65" style="edgeStyle=none;html=1;exitX=1;exitY=0.3333333333333333;exitDx=0;exitDy=0;exitPerimeter=0;entryX=0;entryY=0.5;entryDx=0;entryDy=0;endArrow=none;endFill=0;" parent="1" source="6" target="LYh1yNM5z3HZ3jnRtjPd-56" edge="1">
                    <mxGeometry relative="1" as="geometry"/>
                </mxCell>
                <mxCell id="LYh1yNM5z3HZ3jnRtjPd-66" style="edgeStyle=none;html=1;exitX=1;exitY=0.3333333333333333;exitDx=0;exitDy=0;exitPerimeter=0;entryX=0;entryY=0.5;entryDx=0;entryDy=0;endArrow=none;endFill=0;" parent="1" source="6" target="LYh1yNM5z3HZ3jnRtjPd-60" edge="1">
                    <mxGeometry relative="1" as="geometry"/>
                </mxCell>
                <mxCell id="LYh1yNM5z3HZ3jnRtjPd-116" style="edgeStyle=none;html=1;exitX=1;exitY=0.3333333333333333;exitDx=0;exitDy=0;exitPerimeter=0;entryX=0.5;entryY=0;entryDx=0;entryDy=0;endArrow=none;endFill=0;" parent="1" source="6" target="LYh1yNM5z3HZ3jnRtjPd-113" edge="1">
                    <mxGeometry relative="1" as="geometry">
                        <Array as="points">
                            <mxPoint x="1220" y="620"/>
                        </Array>
                    </mxGeometry>
                </mxCell>
                <mxCell id="6" value="&lt;span style=&quot;box-sizing: border-box; border: 0px solid; --tw-border-spacing-x: 0; --tw-border-spacing-y: 0; --tw-translate-x: 0; --tw-translate-y: 0; --tw-rotate: 0; --tw-skew-x: 0; --tw-skew-y: 0; --tw-scale-x: 1; --tw-scale-y: 1; --tw-pan-x: ; --tw-pan-y: ; --tw-pinch-zoom: ; --tw-scroll-snap-strictness: proximity; --tw-gradient-from-position: ; --tw-gradient-via-position: ; --tw-gradient-to-position: ; --tw-ordinal: ; --tw-slashed-zero: ; --tw-numeric-figure: ; --tw-numeric-spacing: ; --tw-numeric-fraction: ; --tw-ring-inset: ; --tw-ring-offset-width: 0px; --tw-ring-offset-color: #fff; --tw-ring-color: rgba(59,130,246,.5); --tw-ring-offset-shadow: 0 0 #0000; --tw-ring-shadow: 0 0 #0000; --tw-shadow: 0 0 #0000; --tw-shadow-colored: 0 0 #0000; --tw-blur: ; --tw-brightness: ; --tw-contrast: ; --tw-grayscale: ; --tw-hue-rotate: ; --tw-invert: ; --tw-saturate: ; --tw-sepia: ; --tw-drop-shadow: ; --tw-backdrop-blur: ; --tw-backdrop-brightness: ; --tw-backdrop-contrast: ; --tw-backdrop-grayscale: ; --tw-backdrop-hue-rotate: ; --tw-backdrop-invert: ; --tw-backdrop-opacity: ; --tw-backdrop-saturate: ; --tw-backdrop-sepia: ; --tw-contain-size: ; --tw-contain-layout: ; --tw-contain-paint: ; --tw-contain-style: ; font-weight: bolder; color: rgb(0, 0, 0); font-family: &amp;quot;Nunito Sans&amp;quot;, sans-serif; font-size: 14px; text-align: start; background-color: rgb(255, 255, 255);&quot;&gt;Admin&lt;/span&gt;" style="shape=umlActor;verticalLabelPosition=bottom;verticalAlign=top;html=1;outlineConnect=0;" parent="1" vertex="1">
                    <mxGeometry x="420" y="599" width="50" height="90" as="geometry"/>
                </mxCell>
                <mxCell id="LYh1yNM5z3HZ3jnRtjPd-67" style="edgeStyle=none;html=1;exitX=1;exitY=0.3333333333333333;exitDx=0;exitDy=0;exitPerimeter=0;entryX=0;entryY=0.5;entryDx=0;entryDy=0;endArrow=none;endFill=0;" parent="1" source="7" target="LYh1yNM5z3HZ3jnRtjPd-15" edge="1">
                    <mxGeometry relative="1" as="geometry"/>
                </mxCell>
                <mxCell id="LYh1yNM5z3HZ3jnRtjPd-68" style="edgeStyle=none;html=1;exitX=1;exitY=0.3333333333333333;exitDx=0;exitDy=0;exitPerimeter=0;entryX=0;entryY=0.5;entryDx=0;entryDy=0;endArrow=none;endFill=0;" parent="1" source="7" target="LYh1yNM5z3HZ3jnRtjPd-17" edge="1">
                    <mxGeometry relative="1" as="geometry"/>
                </mxCell>
                <mxCell id="LYh1yNM5z3HZ3jnRtjPd-112" style="edgeStyle=none;html=1;exitX=1;exitY=0.3333333333333333;exitDx=0;exitDy=0;exitPerimeter=0;entryX=0;entryY=0.5;entryDx=0;entryDy=0;endArrow=none;endFill=0;" parent="1" source="7" target="LYh1yNM5z3HZ3jnRtjPd-111" edge="1">
                    <mxGeometry relative="1" as="geometry"/>
                </mxCell>
                <mxCell id="7" value="&lt;span style=&quot;box-sizing: border-box; border: 0px solid; --tw-border-spacing-x: 0; --tw-border-spacing-y: 0; --tw-translate-x: 0; --tw-translate-y: 0; --tw-rotate: 0; --tw-skew-x: 0; --tw-skew-y: 0; --tw-scale-x: 1; --tw-scale-y: 1; --tw-pan-x: ; --tw-pan-y: ; --tw-pinch-zoom: ; --tw-scroll-snap-strictness: proximity; --tw-gradient-from-position: ; --tw-gradient-via-position: ; --tw-gradient-to-position: ; --tw-ordinal: ; --tw-slashed-zero: ; --tw-numeric-figure: ; --tw-numeric-spacing: ; --tw-numeric-fraction: ; --tw-ring-inset: ; --tw-ring-offset-width: 0px; --tw-ring-offset-color: #fff; --tw-ring-color: rgba(59,130,246,.5); --tw-ring-offset-shadow: 0 0 #0000; --tw-ring-shadow: 0 0 #0000; --tw-shadow: 0 0 #0000; --tw-shadow-colored: 0 0 #0000; --tw-blur: ; --tw-brightness: ; --tw-contrast: ; --tw-grayscale: ; --tw-hue-rotate: ; --tw-invert: ; --tw-saturate: ; --tw-sepia: ; --tw-drop-shadow: ; --tw-backdrop-blur: ; --tw-backdrop-brightness: ; --tw-backdrop-contrast: ; --tw-backdrop-grayscale: ; --tw-backdrop-hue-rotate: ; --tw-backdrop-invert: ; --tw-backdrop-opacity: ; --tw-backdrop-saturate: ; --tw-backdrop-sepia: ; --tw-contain-size: ; --tw-contain-layout: ; --tw-contain-paint: ; --tw-contain-style: ; font-weight: bolder; color: rgb(0, 0, 0); font-family: &amp;quot;Nunito Sans&amp;quot;, sans-serif; font-size: 14px; text-align: start; background-color: rgb(255, 255, 255);&quot;&gt;Visiteur&lt;/span&gt;" style="shape=umlActor;verticalLabelPosition=bottom;verticalAlign=top;html=1;outlineConnect=0;" parent="1" vertex="1">
                    <mxGeometry x="430" y="1870" width="50" height="90" as="geometry"/>
                </mxCell>
                <mxCell id="LYh1yNM5z3HZ3jnRtjPd-15" value="Consulter le catalogue des cours" style="ellipse;whiteSpace=wrap;html=1;fillColor=#B8BF56;" parent="1" vertex="1">
                    <mxGeometry x="590" y="1880" width="160" height="50" as="geometry"/>
                </mxCell>
                <mxCell id="LYh1yNM5z3HZ3jnRtjPd-17" value="&lt;strong&gt;Rechercher des cours par mots-clÃ©s&lt;/strong&gt;." style="ellipse;whiteSpace=wrap;html=1;fillColor=#B8BF56;" parent="1" vertex="1">
                    <mxGeometry x="590" y="1960" width="160" height="50" as="geometry"/>
                </mxCell>
                <mxCell id="LYh1yNM5z3HZ3jnRtjPd-21" value="S'inscrire Ã  un cours&amp;nbsp;" style="ellipse;whiteSpace=wrap;html=1;fillColor=#B8BF56;" parent="1" vertex="1">
                    <mxGeometry x="575" y="1550" width="130" height="50" as="geometry"/>
                </mxCell>
                <mxCell id="LYh1yNM5z3HZ3jnRtjPd-23" value="&lt;strong&gt;AccÃ©der Ã  la section &quot;Mes cours&quot; regroupant les cours suivis&lt;/strong&gt;." style="ellipse;whiteSpace=wrap;html=1;fillColor=#B8BF56;" parent="1" vertex="1">
                    <mxGeometry x="545" y="1620" width="190" height="60" as="geometry"/>
                </mxCell>
                <mxCell id="LYh1yNM5z3HZ3jnRtjPd-26" value="ajouter un cours" style="ellipse;whiteSpace=wrap;html=1;fillColor=#B8BF56;" parent="1" vertex="1">
                    <mxGeometry x="880" y="130" width="130" height="50" as="geometry"/>
                </mxCell>
                <mxCell id="LYh1yNM5z3HZ3jnRtjPd-27" value="Supprimer les cours." style="ellipse;whiteSpace=wrap;html=1;fillColor=#B8BF56;" parent="1" vertex="1">
                    <mxGeometry x="880" y="250" width="130" height="50" as="geometry"/>
                </mxCell>
                <mxCell id="LYh1yNM5z3HZ3jnRtjPd-29" value="Modifier les cours." style="ellipse;whiteSpace=wrap;html=1;fillColor=#B8BF56;" parent="1" vertex="1">
                    <mxGeometry x="880" y="190" width="130" height="50" as="geometry"/>
                </mxCell>
                <mxCell id="LYh1yNM5z3HZ3jnRtjPd-30" value="Consulter les Statistiques" style="ellipse;whiteSpace=wrap;html=1;fillColor=#B8BF56;" parent="1" vertex="1">
                    <mxGeometry x="570" y="140" width="130" height="50" as="geometry"/>
                </mxCell>
                <mxCell id="LYh1yNM5z3HZ3jnRtjPd-31" value="gÃ©rer les cours" style="ellipse;whiteSpace=wrap;html=1;fillColor=#B8BF56;" parent="1" vertex="1">
                    <mxGeometry x="575" y="220" width="130" height="50" as="geometry"/>
                </mxCell>
                <mxCell id="LYh1yNM5z3HZ3jnRtjPd-32" value="consulter les inscriptions des Ã©tudiants." style="ellipse;whiteSpace=wrap;html=1;fillColor=#B8BF56;" parent="1" vertex="1">
                    <mxGeometry x="880" y="310" width="130" height="50" as="geometry"/>
                </mxCell>
                <mxCell id="LYh1yNM5z3HZ3jnRtjPd-36" value="gÃ©rer les comptes&lt;br&gt;etudiants&amp;nbsp;" style="ellipse;whiteSpace=wrap;html=1;fillColor=#B8BF56;" parent="1" vertex="1">
                    <mxGeometry x="550" y="740" width="150" height="50.25" as="geometry"/>
                </mxCell>
                <mxCell id="LYh1yNM5z3HZ3jnRtjPd-38" value="Activer un compte&lt;br&gt;etudiant" style="ellipse;whiteSpace=wrap;html=1;fillColor=#B8BF56;" parent="1" vertex="1">
                    <mxGeometry x="787.5" y="723.88" width="140" height="42.5" as="geometry"/>
                </mxCell>
                <mxCell id="LYh1yNM5z3HZ3jnRtjPd-40" value="Supprimer un compte&lt;br&gt;etudiant." style="ellipse;whiteSpace=wrap;html=1;fillColor=#B8BF56;" parent="1" vertex="1">
                    <mxGeometry x="790" y="781.5" width="140" height="42.5" as="geometry"/>
                </mxCell>
                <mxCell id="LYh1yNM5z3HZ3jnRtjPd-41" value="Suspendre un compte&lt;br&gt;etudiant." style="ellipse;whiteSpace=wrap;html=1;fillColor=#B8BF56;" parent="1" vertex="1">
                    <mxGeometry x="785" y="670" width="140" height="37.5" as="geometry"/>
                </mxCell>
                <mxCell id="LYh1yNM5z3HZ3jnRtjPd-42" value="Consulter les Statistiques" style="ellipse;whiteSpace=wrap;html=1;fillColor=#B8BF56;" parent="1" vertex="1">
                    <mxGeometry x="570" y="639" width="130" height="50" as="geometry"/>
                </mxCell>
                <mxCell id="LYh1yNM5z3HZ3jnRtjPd-46" value="ajouter une categorie" style="ellipse;whiteSpace=wrap;html=1;fillColor=#B8BF56;" parent="1" vertex="1">
                    <mxGeometry x="787.5" y="894" width="130" height="50" as="geometry"/>
                </mxCell>
                <mxCell id="LYh1yNM5z3HZ3jnRtjPd-47" value="Supprimer une categorie." style="ellipse;whiteSpace=wrap;html=1;fillColor=#B8BF56;" parent="1" vertex="1">
                    <mxGeometry x="787.5" y="1014" width="130" height="50" as="geometry"/>
                </mxCell>
                <mxCell id="LYh1yNM5z3HZ3jnRtjPd-48" value="Modifier une categorie." style="ellipse;whiteSpace=wrap;html=1;fillColor=#B8BF56;" parent="1" vertex="1">
                    <mxGeometry x="787.5" y="954" width="130" height="50" as="geometry"/>
                </mxCell>
                <mxCell id="LYh1yNM5z3HZ3jnRtjPd-49" value="ajouter une Tag" style="ellipse;whiteSpace=wrap;html=1;fillColor=#B8BF56;" parent="1" vertex="1">
                    <mxGeometry x="792.5" y="1100" width="130" height="50" as="geometry"/>
                </mxCell>
                <mxCell id="LYh1yNM5z3HZ3jnRtjPd-50" value="Supprimer une Tag." style="ellipse;whiteSpace=wrap;html=1;fillColor=#B8BF56;" parent="1" vertex="1">
                    <mxGeometry x="792.5" y="1220" width="130" height="50" as="geometry"/>
                </mxCell>
                <mxCell id="LYh1yNM5z3HZ3jnRtjPd-51" value="Modifier une Tag." style="ellipse;whiteSpace=wrap;html=1;fillColor=#B8BF56;" parent="1" vertex="1">
                    <mxGeometry x="792.5" y="1160" width="130" height="50" as="geometry"/>
                </mxCell>
                <mxCell id="LYh1yNM5z3HZ3jnRtjPd-55" value="gÃ©rer les categories" style="ellipse;whiteSpace=wrap;html=1;fillColor=#B8BF56;" parent="1" vertex="1">
                    <mxGeometry x="575" y="954" width="130" height="50" as="geometry"/>
                </mxCell>
                <mxCell id="LYh1yNM5z3HZ3jnRtjPd-56" value="gÃ©rer les Tags" style="ellipse;whiteSpace=wrap;html=1;fillColor=#B8BF56;" parent="1" vertex="1">
                    <mxGeometry x="575" y="1174" width="130" height="50" as="geometry"/>
                </mxCell>
                <mxCell id="LYh1yNM5z3HZ3jnRtjPd-60" value="gÃ©rer les cours" style="ellipse;whiteSpace=wrap;html=1;fillColor=#B8BF56;" parent="1" vertex="1">
                    <mxGeometry x="575" y="1347" width="130" height="50" as="geometry"/>
                </mxCell>
                <mxCell id="LYh1yNM5z3HZ3jnRtjPd-75" style="edgeStyle=none;html=1;exitX=1;exitY=0.3333333333333333;exitDx=0;exitDy=0;exitPerimeter=0;entryX=0;entryY=0.5;entryDx=0;entryDy=0;endArrow=none;endFill=0;" parent="1" source="4" target="LYh1yNM5z3HZ3jnRtjPd-17" edge="1">
                    <mxGeometry relative="1" as="geometry">
                        <mxPoint x="480.0000000000002" y="1630" as="sourcePoint"/>
                        <mxPoint x="659.9999999999998" y="1890" as="targetPoint"/>
                    </mxGeometry>
                </mxCell>
                <mxCell id="LYh1yNM5z3HZ3jnRtjPd-77" value="&amp;lt;&amp;lt;extend&amp;gt;&amp;gt;" style="html=1;verticalAlign=bottom;labelBackgroundColor=none;endArrow=open;endFill=0;dashed=1;entryX=1;entryY=0.5;entryDx=0;entryDy=0;exitX=0;exitY=0.5;exitDx=0;exitDy=0;" parent="1" source="LYh1yNM5z3HZ3jnRtjPd-29" target="LYh1yNM5z3HZ3jnRtjPd-31" edge="1">
                    <mxGeometry width="160" relative="1" as="geometry">
                        <mxPoint x="810" y="330" as="sourcePoint"/>
                        <mxPoint x="970" y="330" as="targetPoint"/>
                        <mxPoint as="offset"/>
                    </mxGeometry>
                </mxCell>
                <mxCell id="LYh1yNM5z3HZ3jnRtjPd-78" value="&amp;lt;&amp;lt;extend&amp;gt;&amp;gt;" style="html=1;verticalAlign=bottom;labelBackgroundColor=none;endArrow=open;endFill=0;dashed=1;exitX=0;exitY=0.5;exitDx=0;exitDy=0;entryX=1;entryY=0.5;entryDx=0;entryDy=0;" parent="1" source="LYh1yNM5z3HZ3jnRtjPd-27" target="LYh1yNM5z3HZ3jnRtjPd-31" edge="1">
                    <mxGeometry width="160" relative="1" as="geometry">
                        <mxPoint x="764.9999999999995" y="219.9999999999999" as="sourcePoint"/>
                        <mxPoint x="710" y="250" as="targetPoint"/>
                        <mxPoint as="offset"/>
                    </mxGeometry>
                </mxCell>
                <mxCell id="LYh1yNM5z3HZ3jnRtjPd-80" value="&amp;lt;&amp;lt;extend&amp;gt;&amp;gt;" style="html=1;verticalAlign=bottom;labelBackgroundColor=none;endArrow=open;endFill=0;dashed=1;exitX=0;exitY=0.5;exitDx=0;exitDy=0;entryX=1;entryY=0.5;entryDx=0;entryDy=0;" parent="1" source="LYh1yNM5z3HZ3jnRtjPd-32" target="LYh1yNM5z3HZ3jnRtjPd-31" edge="1">
                    <mxGeometry width="160" relative="1" as="geometry">
                        <mxPoint x="749.9999999999995" y="265" as="sourcePoint"/>
                        <mxPoint x="714.9999999999995" y="254.9999999999999" as="targetPoint"/>
                        <mxPoint as="offset"/>
                    </mxGeometry>
                </mxCell>
                <mxCell id="LYh1yNM5z3HZ3jnRtjPd-81" value="&amp;lt;&amp;lt;extend&amp;gt;&amp;gt;" style="html=1;verticalAlign=bottom;labelBackgroundColor=none;endArrow=open;endFill=0;dashed=1;entryX=1;entryY=0.5;entryDx=0;entryDy=0;exitX=0;exitY=0.5;exitDx=0;exitDy=0;" parent="1" source="LYh1yNM5z3HZ3jnRtjPd-38" target="LYh1yNM5z3HZ3jnRtjPd-36" edge="1">
                    <mxGeometry width="160" relative="1" as="geometry">
                        <mxPoint x="755" y="684.9999999999999" as="sourcePoint"/>
                        <mxPoint x="645" y="755" as="targetPoint"/>
                        <mxPoint as="offset"/>
                    </mxGeometry>
                </mxCell>
                <mxCell id="LYh1yNM5z3HZ3jnRtjPd-82" value="&amp;lt;&amp;lt;extend&amp;gt;&amp;gt;" style="html=1;verticalAlign=bottom;labelBackgroundColor=none;endArrow=open;endFill=0;dashed=1;exitX=0;exitY=0.5;exitDx=0;exitDy=0;entryX=1;entryY=0.5;entryDx=0;entryDy=0;" parent="1" source="LYh1yNM5z3HZ3jnRtjPd-41" target="LYh1yNM5z3HZ3jnRtjPd-36" edge="1">
                    <mxGeometry width="160" relative="1" as="geometry">
                        <mxPoint x="755" y="755" as="sourcePoint"/>
                        <mxPoint x="645" y="755" as="targetPoint"/>
                        <mxPoint as="offset"/>
                    </mxGeometry>
                </mxCell>
                <mxCell id="LYh1yNM5z3HZ3jnRtjPd-83" value="&amp;lt;&amp;lt;extend&amp;gt;&amp;gt;" style="html=1;verticalAlign=bottom;labelBackgroundColor=none;endArrow=open;endFill=0;dashed=1;exitX=0;exitY=0.5;exitDx=0;exitDy=0;entryX=1;entryY=0.5;entryDx=0;entryDy=0;" parent="1" source="LYh1yNM5z3HZ3jnRtjPd-40" target="LYh1yNM5z3HZ3jnRtjPd-36" edge="1">
                    <mxGeometry width="160" relative="1" as="geometry">
                        <mxPoint x="755" y="825" as="sourcePoint"/>
                        <mxPoint x="645" y="755" as="targetPoint"/>
                        <mxPoint as="offset"/>
                    </mxGeometry>
                </mxCell>
                <mxCell id="LYh1yNM5z3HZ3jnRtjPd-84" value="&amp;lt;&amp;lt;extend&amp;gt;&amp;gt;" style="html=1;verticalAlign=bottom;labelBackgroundColor=none;endArrow=open;endFill=0;dashed=1;entryX=1;entryY=0.5;entryDx=0;entryDy=0;exitX=0;exitY=0.5;exitDx=0;exitDy=0;" parent="1" source="LYh1yNM5z3HZ3jnRtjPd-46" target="LYh1yNM5z3HZ3jnRtjPd-55" edge="1">
                    <mxGeometry width="160" relative="1" as="geometry">
                        <mxPoint x="795" y="914.9999999999999" as="sourcePoint"/>
                        <mxPoint x="685" y="985" as="targetPoint"/>
                        <mxPoint as="offset"/>
                    </mxGeometry>
                </mxCell>
                <mxCell id="LYh1yNM5z3HZ3jnRtjPd-85" value="&amp;lt;&amp;lt;extend&amp;gt;&amp;gt;" style="html=1;verticalAlign=bottom;labelBackgroundColor=none;endArrow=open;endFill=0;dashed=1;exitX=0;exitY=0.5;exitDx=0;exitDy=0;entryX=1;entryY=0.5;entryDx=0;entryDy=0;" parent="1" source="LYh1yNM5z3HZ3jnRtjPd-48" target="LYh1yNM5z3HZ3jnRtjPd-55" edge="1">
                    <mxGeometry width="160" relative="1" as="geometry">
                        <mxPoint x="795" y="985" as="sourcePoint"/>
                        <mxPoint x="685" y="985" as="targetPoint"/>
                        <mxPoint as="offset"/>
                    </mxGeometry>
                </mxCell>
                <mxCell id="LYh1yNM5z3HZ3jnRtjPd-86" value="&amp;lt;&amp;lt;extend&amp;gt;&amp;gt;" style="html=1;verticalAlign=bottom;labelBackgroundColor=none;endArrow=open;endFill=0;dashed=1;exitX=0;exitY=0.5;exitDx=0;exitDy=0;entryX=1;entryY=0.5;entryDx=0;entryDy=0;" parent="1" source="LYh1yNM5z3HZ3jnRtjPd-47" target="LYh1yNM5z3HZ3jnRtjPd-55" edge="1">
                    <mxGeometry width="160" relative="1" as="geometry">
                        <mxPoint x="795" y="1055" as="sourcePoint"/>
                        <mxPoint x="685" y="985" as="targetPoint"/>
                        <mxPoint as="offset"/>
                    </mxGeometry>
                </mxCell>
                <mxCell id="LYh1yNM5z3HZ3jnRtjPd-87" value="&amp;lt;&amp;lt;extend&amp;gt;&amp;gt;" style="html=1;verticalAlign=bottom;labelBackgroundColor=none;endArrow=open;endFill=0;dashed=1;entryX=1;entryY=0.5;entryDx=0;entryDy=0;exitX=0;exitY=0.5;exitDx=0;exitDy=0;" parent="1" source="LYh1yNM5z3HZ3jnRtjPd-49" target="LYh1yNM5z3HZ3jnRtjPd-56" edge="1">
                    <mxGeometry width="160" relative="1" as="geometry">
                        <mxPoint x="775" y="1135" as="sourcePoint"/>
                        <mxPoint x="665" y="1205" as="targetPoint"/>
                        <mxPoint as="offset"/>
                    </mxGeometry>
                </mxCell>
                <mxCell id="LYh1yNM5z3HZ3jnRtjPd-88" value="&amp;lt;&amp;lt;extend&amp;gt;&amp;gt;" style="html=1;verticalAlign=bottom;labelBackgroundColor=none;endArrow=open;endFill=0;dashed=1;exitX=0;exitY=0.5;exitDx=0;exitDy=0;entryX=1;entryY=0.5;entryDx=0;entryDy=0;" parent="1" source="LYh1yNM5z3HZ3jnRtjPd-51" target="LYh1yNM5z3HZ3jnRtjPd-56" edge="1">
                    <mxGeometry width="160" relative="1" as="geometry">
                        <mxPoint x="775" y="1205" as="sourcePoint"/>
                        <mxPoint x="665" y="1205" as="targetPoint"/>
                        <mxPoint as="offset"/>
                    </mxGeometry>
                </mxCell>
                <mxCell id="LYh1yNM5z3HZ3jnRtjPd-89" value="&amp;lt;&amp;lt;extend&amp;gt;&amp;gt;" style="html=1;verticalAlign=bottom;labelBackgroundColor=none;endArrow=open;endFill=0;dashed=1;exitX=0;exitY=0.5;exitDx=0;exitDy=0;entryX=1;entryY=0.5;entryDx=0;entryDy=0;" parent="1" source="LYh1yNM5z3HZ3jnRtjPd-50" target="LYh1yNM5z3HZ3jnRtjPd-56" edge="1">
                    <mxGeometry width="160" relative="1" as="geometry">
                        <mxPoint x="775" y="1275" as="sourcePoint"/>
                        <mxPoint x="665" y="1205" as="targetPoint"/>
                        <mxPoint as="offset"/>
                    </mxGeometry>
                </mxCell>
                <mxCell id="LYh1yNM5z3HZ3jnRtjPd-93" value="&amp;lt;&amp;lt;extend&amp;gt;&amp;gt;" style="html=1;verticalAlign=bottom;labelBackgroundColor=none;endArrow=open;endFill=0;dashed=1;entryX=1;entryY=0.5;entryDx=0;entryDy=0;exitX=0;exitY=0.5;exitDx=0;exitDy=0;" parent="1" source="13" target="LYh1yNM5z3HZ3jnRtjPd-60" edge="1">
                    <mxGeometry width="160" relative="1" as="geometry">
                        <mxPoint x="800.0000000000025" y="1325.2500000000002" as="sourcePoint"/>
                        <mxPoint x="675" y="1356" as="targetPoint"/>
                        <mxPoint as="offset"/>
                    </mxGeometry>
                </mxCell>
                <mxCell id="LYh1yNM5z3HZ3jnRtjPd-94" value="&amp;lt;&amp;lt;extend&amp;gt;&amp;gt;" style="html=1;verticalAlign=bottom;labelBackgroundColor=none;endArrow=open;endFill=0;dashed=1;exitX=0;exitY=0.5;exitDx=0;exitDy=0;entryX=1;entryY=0.5;entryDx=0;entryDy=0;" parent="1" source="14" target="LYh1yNM5z3HZ3jnRtjPd-60" edge="1">
                    <mxGeometry width="160" relative="1" as="geometry">
                        <mxPoint x="799.9999999999966" y="1386.7499999999998" as="sourcePoint"/>
                        <mxPoint x="710" y="1370" as="targetPoint"/>
                        <mxPoint as="offset"/>
                    </mxGeometry>
                </mxCell>
                <mxCell id="LYh1yNM5z3HZ3jnRtjPd-97" value="s'authentifier" style="ellipse;whiteSpace=wrap;html=1;fillColor=#B8BF56;" parent="1" vertex="1">
                    <mxGeometry x="1030" y="954" width="130" height="50" as="geometry"/>
                </mxCell>
                <mxCell id="LYh1yNM5z3HZ3jnRtjPd-100" value="&amp;lt;&amp;lt;include&amp;gt;&amp;gt;" style="html=1;verticalAlign=bottom;labelBackgroundColor=none;endArrow=open;endFill=0;dashed=1;fontSize=9;exitX=0.5;exitY=0;exitDx=0;exitDy=0;edgeStyle=orthogonalEdgeStyle;entryX=0.63;entryY=-0.011;entryDx=0;entryDy=0;entryPerimeter=0;" parent="1" source="LYh1yNM5z3HZ3jnRtjPd-30" target="LYh1yNM5z3HZ3jnRtjPd-97" edge="1">
                    <mxGeometry x="-0.1784" width="160" relative="1" as="geometry">
                        <mxPoint x="714" y="105" as="sourcePoint"/>
                        <mxPoint x="1104" y="964" as="targetPoint"/>
                        <mxPoint x="-1" as="offset"/>
                        <Array as="points">
                            <mxPoint x="635" y="70"/>
                            <mxPoint x="1112" y="70"/>
                        </Array>
                    </mxGeometry>
                </mxCell>
                <mxCell id="LYh1yNM5z3HZ3jnRtjPd-101" value="&amp;lt;&amp;lt;include&amp;gt;&amp;gt;" style="html=1;verticalAlign=bottom;labelBackgroundColor=none;endArrow=open;endFill=0;dashed=1;fontSize=9;exitX=0.5;exitY=1;exitDx=0;exitDy=0;edgeStyle=orthogonalEdgeStyle;entryX=0.728;entryY=0.029;entryDx=0;entryDy=0;entryPerimeter=0;" parent="1" source="LYh1yNM5z3HZ3jnRtjPd-31" target="LYh1yNM5z3HZ3jnRtjPd-97" edge="1">
                    <mxGeometry x="-0.1784" width="160" relative="1" as="geometry">
                        <mxPoint x="725" y="55" as="sourcePoint"/>
                        <mxPoint x="1115" y="914" as="targetPoint"/>
                        <mxPoint x="-1" as="offset"/>
                        <Array as="points">
                            <mxPoint x="640" y="380"/>
                            <mxPoint x="1125" y="380"/>
                        </Array>
                    </mxGeometry>
                </mxCell>
                <mxCell id="LYh1yNM5z3HZ3jnRtjPd-102" value="&amp;lt;&amp;lt;include&amp;gt;&amp;gt;" style="html=1;verticalAlign=bottom;labelBackgroundColor=none;endArrow=open;endFill=0;dashed=1;fontSize=9;edgeStyle=orthogonalEdgeStyle;entryX=0.389;entryY=0.036;entryDx=0;entryDy=0;entryPerimeter=0;exitX=0.5;exitY=0;exitDx=0;exitDy=0;" parent="1" source="22" target="LYh1yNM5z3HZ3jnRtjPd-97" edge="1">
                    <mxGeometry x="-0.1784" width="160" relative="1" as="geometry">
                        <mxPoint x="640" y="520" as="sourcePoint"/>
                        <mxPoint x="1082" y="960" as="targetPoint"/>
                        <mxPoint x="-1" as="offset"/>
                        <Array as="points">
                            <mxPoint x="640" y="540"/>
                            <mxPoint x="640" y="450"/>
                            <mxPoint x="1081" y="450"/>
                        </Array>
                    </mxGeometry>
                </mxCell>
                <mxCell id="LYh1yNM5z3HZ3jnRtjPd-103" value="&amp;lt;&amp;lt;include&amp;gt;&amp;gt;" style="html=1;verticalAlign=bottom;labelBackgroundColor=none;endArrow=open;endFill=0;dashed=1;fontSize=9;exitX=1;exitY=0.5;exitDx=0;exitDy=0;edgeStyle=orthogonalEdgeStyle;entryX=0.264;entryY=-0.018;entryDx=0;entryDy=0;entryPerimeter=0;" parent="1" source="LYh1yNM5z3HZ3jnRtjPd-42" target="LYh1yNM5z3HZ3jnRtjPd-97" edge="1">
                    <mxGeometry x="-0.1784" width="160" relative="1" as="geometry">
                        <mxPoint x="555" y="460.02" as="sourcePoint"/>
                        <mxPoint x="1039.6399999999999" y="1145.47" as="targetPoint"/>
                        <mxPoint x="-1" as="offset"/>
                        <Array as="points">
                            <mxPoint x="1064" y="664"/>
                            <mxPoint x="1064" y="953"/>
                        </Array>
                    </mxGeometry>
                </mxCell>
                <mxCell id="LYh1yNM5z3HZ3jnRtjPd-104" value="&amp;lt;&amp;lt;include&amp;gt;&amp;gt;" style="html=1;verticalAlign=bottom;labelBackgroundColor=none;endArrow=open;endFill=0;dashed=1;fontSize=9;exitX=0.5;exitY=1;exitDx=0;exitDy=0;edgeStyle=orthogonalEdgeStyle;entryX=0;entryY=0;entryDx=0;entryDy=0;" parent="1" source="LYh1yNM5z3HZ3jnRtjPd-36" target="LYh1yNM5z3HZ3jnRtjPd-97" edge="1">
                    <mxGeometry x="-0.1784" width="160" relative="1" as="geometry">
                        <mxPoint x="665.6800000000001" y="658.19" as="sourcePoint"/>
                        <mxPoint x="1030" y="947.29" as="targetPoint"/>
                        <mxPoint x="-1" as="offset"/>
                        <Array as="points">
                            <mxPoint x="635" y="850"/>
                            <mxPoint x="1049" y="850"/>
                        </Array>
                    </mxGeometry>
                </mxCell>
                <mxCell id="LYh1yNM5z3HZ3jnRtjPd-105" value="&amp;lt;&amp;lt;include&amp;gt;&amp;gt;" style="html=1;verticalAlign=bottom;labelBackgroundColor=none;endArrow=open;endFill=0;dashed=1;fontSize=9;exitX=0.5;exitY=1;exitDx=0;exitDy=0;edgeStyle=orthogonalEdgeStyle;entryX=1;entryY=1;entryDx=0;entryDy=0;" parent="1" source="LYh1yNM5z3HZ3jnRtjPd-55" target="LYh1yNM5z3HZ3jnRtjPd-97" edge="1">
                    <mxGeometry x="-0.1784" width="160" relative="1" as="geometry">
                        <mxPoint x="645" y="980.25" as="sourcePoint"/>
                        <mxPoint x="1058.7199949988835" y="1171.4455153444042" as="targetPoint"/>
                        <mxPoint x="-1" as="offset"/>
                        <Array as="points">
                            <mxPoint x="640" y="1090"/>
                            <mxPoint x="1141" y="1090"/>
                        </Array>
                    </mxGeometry>
                </mxCell>
                <mxCell id="LYh1yNM5z3HZ3jnRtjPd-106" value="&amp;lt;&amp;lt;include&amp;gt;&amp;gt;" style="html=1;verticalAlign=bottom;labelBackgroundColor=none;endArrow=open;endFill=0;dashed=1;fontSize=9;exitX=0.5;exitY=1;exitDx=0;exitDy=0;edgeStyle=orthogonalEdgeStyle;entryX=0.55;entryY=1.016;entryDx=0;entryDy=0;entryPerimeter=0;" parent="1" source="LYh1yNM5z3HZ3jnRtjPd-56" target="LYh1yNM5z3HZ3jnRtjPd-97" edge="1">
                    <mxGeometry x="-0.1784" width="160" relative="1" as="geometry">
                        <mxPoint x="650" y="1014" as="sourcePoint"/>
                        <mxPoint x="1151.280005001117" y="1006.5544846555961" as="targetPoint"/>
                        <mxPoint x="-1" as="offset"/>
                        <Array as="points">
                            <mxPoint x="640" y="1290"/>
                            <mxPoint x="1102" y="1290"/>
                            <mxPoint x="1102" y="1005"/>
                        </Array>
                    </mxGeometry>
                </mxCell>
                <mxCell id="LYh1yNM5z3HZ3jnRtjPd-108" value="&amp;lt;&amp;lt;include&amp;gt;&amp;gt;" style="html=1;verticalAlign=bottom;labelBackgroundColor=none;endArrow=open;endFill=0;dashed=1;fontSize=9;exitX=0.5;exitY=1;exitDx=0;exitDy=0;edgeStyle=orthogonalEdgeStyle;entryX=0.682;entryY=0.959;entryDx=0;entryDy=0;entryPerimeter=0;" parent="1" source="LYh1yNM5z3HZ3jnRtjPd-60" target="LYh1yNM5z3HZ3jnRtjPd-97" edge="1">
                    <mxGeometry x="-0.1866" y="-10" width="160" relative="1" as="geometry">
                        <mxPoint x="650" y="1234" as="sourcePoint"/>
                        <mxPoint x="1105" y="1014" as="targetPoint"/>
                        <mxPoint as="offset"/>
                        <Array as="points">
                            <mxPoint x="640" y="1500"/>
                            <mxPoint x="1119" y="1500"/>
                        </Array>
                    </mxGeometry>
                </mxCell>
                <mxCell id="LYh1yNM5z3HZ3jnRtjPd-109" value="&amp;lt;&amp;lt;include&amp;gt;&amp;gt;" style="html=1;verticalAlign=bottom;labelBackgroundColor=none;endArrow=open;endFill=0;dashed=1;fontSize=9;exitX=1;exitY=0.5;exitDx=0;exitDy=0;edgeStyle=orthogonalEdgeStyle;entryX=0.305;entryY=0.986;entryDx=0;entryDy=0;entryPerimeter=0;" parent="1" source="LYh1yNM5z3HZ3jnRtjPd-21" target="LYh1yNM5z3HZ3jnRtjPd-97" edge="1">
                    <mxGeometry x="-0.1784" width="160" relative="1" as="geometry">
                        <mxPoint x="650" y="1475.05" as="sourcePoint"/>
                        <mxPoint x="1128.66" y="1080" as="targetPoint"/>
                        <mxPoint x="-1" as="offset"/>
                        <Array as="points">
                            <mxPoint x="1070" y="1575"/>
                            <mxPoint x="1070" y="1006"/>
                            <mxPoint x="1070" y="1006"/>
                        </Array>
                    </mxGeometry>
                </mxCell>
                <mxCell id="LYh1yNM5z3HZ3jnRtjPd-110" value="&amp;lt;&amp;lt;include&amp;gt;&amp;gt;" style="html=1;verticalAlign=bottom;labelBackgroundColor=none;endArrow=open;endFill=0;dashed=1;fontSize=9;exitX=1;exitY=0.5;exitDx=0;exitDy=0;edgeStyle=orthogonalEdgeStyle;entryX=0.444;entryY=1.016;entryDx=0;entryDy=0;entryPerimeter=0;" parent="1" source="LYh1yNM5z3HZ3jnRtjPd-23" target="LYh1yNM5z3HZ3jnRtjPd-97" edge="1">
                    <mxGeometry x="-0.1784" width="160" relative="1" as="geometry">
                        <mxPoint x="715" y="1585" as="sourcePoint"/>
                        <mxPoint x="1079.65" y="1013.3" as="targetPoint"/>
                        <mxPoint x="-1" as="offset"/>
                        <Array as="points">
                            <mxPoint x="1090" y="1650"/>
                            <mxPoint x="1090" y="1005"/>
                        </Array>
                    </mxGeometry>
                </mxCell>
                <mxCell id="LYh1yNM5z3HZ3jnRtjPd-111" value="creer un compte" style="ellipse;whiteSpace=wrap;html=1;fillColor=#B8BF56;" parent="1" vertex="1">
                    <mxGeometry x="605" y="2040" width="130" height="50" as="geometry"/>
                </mxCell>
                <mxCell id="LYh1yNM5z3HZ3jnRtjPd-113" value="se dÃ©conecter" style="ellipse;whiteSpace=wrap;html=1;fillColor=#B8BF56;" parent="1" vertex="1">
                    <mxGeometry x="1220" y="954" width="80" height="50" as="geometry"/>
                </mxCell>
                <mxCell id="LYh1yNM5z3HZ3jnRtjPd-114" value="&amp;lt;&amp;lt;include&amp;gt;&amp;gt;" style="html=1;verticalAlign=bottom;labelBackgroundColor=none;endArrow=open;endFill=0;dashed=1;exitX=0;exitY=0.5;exitDx=0;exitDy=0;entryX=1;entryY=0.5;entryDx=0;entryDy=0;" parent="1" source="LYh1yNM5z3HZ3jnRtjPd-113" target="LYh1yNM5z3HZ3jnRtjPd-97" edge="1">
                    <mxGeometry width="160" relative="1" as="geometry">
                        <mxPoint x="1287.5000000000007" y="989" as="sourcePoint"/>
                        <mxPoint x="1204.9999999999993" y="989" as="targetPoint"/>
                        <mxPoint as="offset"/>
                    </mxGeometry>
                </mxCell>
                <mxCell id="8" value="&amp;lt;&amp;lt;extend&amp;gt;&amp;gt;" style="html=1;verticalAlign=bottom;labelBackgroundColor=none;endArrow=open;endFill=0;dashed=1;exitX=0;exitY=0.5;exitDx=0;exitDy=0;entryX=1;entryY=0.5;entryDx=0;entryDy=0;" parent="1" source="LYh1yNM5z3HZ3jnRtjPd-26" target="LYh1yNM5z3HZ3jnRtjPd-31" edge="1">
                    <mxGeometry width="160" relative="1" as="geometry">
                        <mxPoint x="890" y="225" as="sourcePoint"/>
                        <mxPoint x="710" y="260" as="targetPoint"/>
                        <mxPoint as="offset"/>
                    </mxGeometry>
                </mxCell>
                <mxCell id="9" value="supprimer un cour&amp;nbsp;" style="ellipse;whiteSpace=wrap;html=1;fillColor=#B8BF56;" parent="1" vertex="1">
                    <mxGeometry x="795" y="1430" width="130" height="50" as="geometry"/>
                </mxCell>
                <mxCell id="11" value="&amp;lt;&amp;lt;extend&amp;gt;&amp;gt;" style="html=1;verticalAlign=bottom;labelBackgroundColor=none;endArrow=open;endFill=0;dashed=1;exitX=0;exitY=0.5;exitDx=0;exitDy=0;entryX=1;entryY=0.5;entryDx=0;entryDy=0;" parent="1" source="9" target="LYh1yNM5z3HZ3jnRtjPd-60" edge="1">
                    <mxGeometry width="160" relative="1" as="geometry">
                        <mxPoint x="810" y="1380.5" as="sourcePoint"/>
                        <mxPoint x="715" y="1382" as="targetPoint"/>
                        <mxPoint as="offset"/>
                    </mxGeometry>
                </mxCell>
                <mxCell id="13" value="refuser un cour&amp;nbsp;" style="ellipse;whiteSpace=wrap;html=1;fillColor=#B8BF56;" parent="1" vertex="1">
                    <mxGeometry x="795" y="1310" width="130" height="50" as="geometry"/>
                </mxCell>
                <mxCell id="14" value="valider un cour&amp;nbsp;" style="ellipse;whiteSpace=wrap;html=1;fillColor=#B8BF56;" parent="1" vertex="1">
                    <mxGeometry x="795" y="1370" width="130" height="50" as="geometry"/>
                </mxCell>
                <mxCell id="22" value="gÃ©rer les comptes&lt;br&gt;enseignant&amp;nbsp;" style="ellipse;whiteSpace=wrap;html=1;fillColor=#B8BF56;" vertex="1" parent="1">
                    <mxGeometry x="570" y="548.75" width="150" height="50.25" as="geometry"/>
                </mxCell>
                <mxCell id="23" value="Activer un compte&lt;br&gt;enseignant" style="ellipse;whiteSpace=wrap;html=1;fillColor=#B8BF56;" vertex="1" parent="1">
                    <mxGeometry x="827.5" y="503.88" width="140" height="42.5" as="geometry"/>
                </mxCell>
                <mxCell id="24" value="Supprimer un compte&lt;br&gt;enseignant" style="ellipse;whiteSpace=wrap;html=1;fillColor=#B8BF56;" vertex="1" parent="1">
                    <mxGeometry x="830" y="561.5" width="140" height="42.5" as="geometry"/>
                </mxCell>
                <mxCell id="25" value="Suspendre un compte&lt;br&gt;enseignant" style="ellipse;whiteSpace=wrap;html=1;fillColor=#B8BF56;" vertex="1" parent="1">
                    <mxGeometry x="825" y="450" width="140" height="37.5" as="geometry"/>
                </mxCell>
                <mxCell id="26" value="&amp;lt;&amp;lt;extend&amp;gt;&amp;gt;" style="html=1;verticalAlign=bottom;labelBackgroundColor=none;endArrow=open;endFill=0;dashed=1;entryX=1;entryY=0.5;entryDx=0;entryDy=0;exitX=0;exitY=0.5;exitDx=0;exitDy=0;" edge="1" source="23" target="22" parent="1">
                    <mxGeometry width="160" relative="1" as="geometry">
                        <mxPoint x="795" y="484.9999999999999" as="sourcePoint"/>
                        <mxPoint x="685" y="555" as="targetPoint"/>
                        <mxPoint as="offset"/>
                    </mxGeometry>
                </mxCell>
                <mxCell id="27" value="&amp;lt;&amp;lt;extend&amp;gt;&amp;gt;" style="html=1;verticalAlign=bottom;labelBackgroundColor=none;endArrow=open;endFill=0;dashed=1;exitX=0;exitY=0.5;exitDx=0;exitDy=0;entryX=1;entryY=0.5;entryDx=0;entryDy=0;" edge="1" source="25" target="22" parent="1">
                    <mxGeometry width="160" relative="1" as="geometry">
                        <mxPoint x="795" y="555" as="sourcePoint"/>
                        <mxPoint x="685" y="555" as="targetPoint"/>
                        <mxPoint as="offset"/>
                    </mxGeometry>
                </mxCell>
                <mxCell id="28" value="&amp;lt;&amp;lt;extend&amp;gt;&amp;gt;" style="html=1;verticalAlign=bottom;labelBackgroundColor=none;endArrow=open;endFill=0;dashed=1;exitX=0;exitY=0.5;exitDx=0;exitDy=0;entryX=1;entryY=0.5;entryDx=0;entryDy=0;" edge="1" source="24" target="22" parent="1">
                    <mxGeometry width="160" relative="1" as="geometry">
                        <mxPoint x="795" y="625" as="sourcePoint"/>
                        <mxPoint x="685" y="555" as="targetPoint"/>
                        <mxPoint as="offset"/>
                    </mxGeometry>
                </mxCell>
            </root>
        </mxGraphModel>
    </diagram>
</mxfile>